<svg xmlns="http://www.w3.org/2000/svg" viewBox="0 -0.5 16 16" shape-rendering="crispEdges">
<metadata>Made with Pixels to Svg https://codepen.io/shshaw/pen/XbxvNj</metadata>
<path stroke="#005300" d="M6 2h4M5 3h1M10 3h1M4 4h1M3 5h1M3 6h1M3 7h1M3 8h1M3 9h1M3 10h1M4 11h1M5 12h1" />
<path stroke="#dbffeb" d="M6 3h1M5 4h1M4 5h1" />
<path stroke="#41f384" d="M7 3h2M7 4h2M7 5h2M8 10h1" />
<path stroke="#17dd62" d="M9 3h1M10 4h1M11 5h1M5 6h2M5 7h2M5 8h2M5 9h2M11 9h1M5 10h2M11 10h1M9 12h1" />
<path stroke="#affdcd" d="M6 4h1M5 5h2M4 6h1M7 6h2M4 7h1M7 7h1M4 8h1M7 8h1M4 9h1M4 10h1" />
<path stroke="#00aa2c" d="M9 4h1M9 5h2M9 6h1M11 6h1M9 7h1M11 7h1M9 8h1M11 8h1M9 9h1M5 11h1M6 12h1" />
<path stroke="#002d00" d="M11 4h1M12 5h1M12 6h1M12 7h1M12 8h1M12 9h1M12 10h1M11 11h1M10 12h1M6 13h4" />
<path stroke="#009529" d="M10 6h1M10 10h1M6 11h1M9 11h1M7 12h1" />
<path stroke="#82f6ad" d="M8 7h1M8 8h1M7 9h2M7 10h1M10 11h1" />
<path stroke="#007b18" d="M10 7h1M10 8h1M10 9h1M9 10h1M7 11h2M8 12h1" />
</svg>