<svg xmlns="http://www.w3.org/2000/svg" viewBox="0 -0.5 16 16" shape-rendering="crispEdges">
    <metadata>Made with Pixels to Svg https://codepen.io/shshaw/pen/XbxvNj</metadata>
    <path stroke="#73172d" d="M7 0h2M6 1h1M9 1h1M6 2h1M9 2h1M5 3h1M10 3h1M5 4h1M10 4h1M1 5h4M11 5h4M0 6h1M15 6h1M0 7h1M15 7h1M1 8h1M14 8h1M2 9h1M13 9h1M3 10h1M12 10h1M3 11h1M12 11h1M2 12h1M13 12h1M2 13h1M7 13h2M13 13h1M2 14h1M5 14h2M9 14h2M13 14h1M3 15h2M11 15h2" />
    <path stroke="#faf209" d="M7 1h1M6 4h1M6 6h1" />
    <path stroke="#ffbd16" d="M8 1h1M8 2h1M6 3h1M8 3h1M8 4h1M5 5h1M8 5h1M5 6h1M8 6h1M14 6h1M8 7h1M13 7h1M11 8h1" />
    <path stroke="#f9fff1" d="M7 2h1M7 3h1M7 4h1M7 5h1M2 6h2M7 6h1M12 6h2M4 7h2M7 7h1M10 7h2M6 8h4M7 9h1" />
    <path stroke="#ff7b15" d="M9 3h1" />
    <path stroke="#ff7e00" d="M9 4h1" />
    <path stroke="#faf505" d="M6 5h1M4 6h1M3 7h1M5 8h1" />
    <path stroke="#f78000" d="M9 5h2M9 6h1M14 7h1M12 8h2M12 9h1M11 10h1M11 11h1M12 12h1M9 13h1M11 14h2" />
    <path stroke="#fdc510" d="M1 6h1M2 8h1" />
    <path stroke="#f2f300" d="M10 6h1M12 7h1M10 8h1" />
    <path stroke="#f8f500" d="M11 6h1" />
    <path stroke="#fe7f22" d="M1 7h1M3 9h1" />
    <path stroke="#f9c511" d="M2 7h1M3 8h2M5 9h1M5 10h1" />
    <path stroke="#fced14" d="M6 7h1" />
    <path stroke="#fcee0f" d="M9 7h1M6 9h1M8 9h1M7 10h2M9 11h1M10 12h1M11 13h1" />
    <path stroke="#fbc30e" d="M4 9h1" />
    <path stroke="#ffc013" d="M9 9h1M9 10h1M10 11h1M11 12h1M12 13h1" />
    <path stroke="#fe7c02" d="M10 9h1M4 10h1M10 10h1M4 11h1M7 11h2M3 12h1M6 12h3M5 13h2M3 14h2" />
    <path stroke="#fb7f00" d="M11 9h1" />
    <path stroke="#ffe415" d="M6 10h1M5 11h1" />
    <path stroke="#f8c10c" d="M6 11h1" />
    <path stroke="#fdee0f" d="M4 12h1" />
    <path stroke="#ffc715" d="M5 12h1M4 13h1" />
    <path stroke="#febe14" d="M9 12h1" />
    <path stroke="#ffed19" d="M3 13h1" />
    <path stroke="#f2be12" d="M10 13h1" />
</svg>