<svg xmlns="http://www.w3.org/2000/svg" viewBox="0 -0.5 16 16" shape-rendering="crispEdges">
<metadata>Made with Pixels to Svg https://codepen.io/shshaw/pen/XbxvNj</metadata>
<path stroke="#9e6d06" d="M7 1h2M6 2h1M9 2h1M6 3h1M9 3h1M1 4h5M10 4h5M1 5h1M14 5h1M2 6h1M13 6h1M3 7h1M12 7h1M4 8h1M11 8h1M4 9h1M11 9h1M3 10h1M12 10h1M2 11h1M7 11h2M13 11h1M2 12h1M5 12h2M9 12h2M13 12h1M1 13h1M4 13h1M11 13h1M14 13h1M1 14h3M12 14h3" />
<path stroke="#f0c25f" d="M7 2h1M7 3h1M6 4h2M2 5h6M11 5h3M6 6h2M9 6h2M7 7h3M6 8h2M5 9h3M4 10h3M3 11h1M3 12h1M2 13h1" />
<path stroke="#e1aa35" d="M8 2h1M8 3h1M8 4h2M8 5h3M4 6h2M8 6h1M4 7h3M5 8h1M8 9h2M9 10h3M11 11h2M12 12h1M13 13h1" />
<path stroke="#d0961b" d="M3 6h1M11 6h2M10 7h2M8 8h3M10 9h1M7 10h2M4 11h3M9 11h2M4 12h1M11 12h1M3 13h1M12 13h1" />
</svg>