<svg xmlns="http://www.w3.org/2000/svg" viewBox="0 -0.5 16 16" shape-rendering="crispEdges">
    <metadata>Made with Pixels to Svg https://codepen.io/shshaw/pen/XbxvNj</metadata>
    <path stroke="#b44400" d="M6 2h1M9 3h1M5 4h1M9 4h2M4 5h2M8 5h4M3 6h3M9 6h1M11 6h2M6 7h1M10 7h1M13 7h1M2 8h2M6 8h2M9 8h2M13 8h1M8 9h2M13 9h1M13 10h1M3 11h1M12 11h1" />
    <path stroke="#c36001" d="M11 2h1M6 3h1M10 6h1M4 7h2M11 7h2M4 8h1M11 8h1M2 9h1M5 9h3M10 9h1M3 10h1M6 10h1M12 10h1M4 12h1" />
    <path stroke="#cf7b06" d="M3 7h1M5 8h1M12 8h1M3 9h1M11 9h1M7 10h1M10 10h1M5 11h1" />
    <path stroke="#ebc343" d="M4 9h1M12 9h1M4 10h2M8 10h2M11 10h1M4 11h1M7 11h2M9 12h1M7 13h1" />
    <path stroke="#cc7405" d="M6 11h1M11 11h1M6 12h1" />
    <path stroke="#ffffff" d="M9 11h1M5 12h1M6 13h1M8 13h2" />
    <path stroke="#f3da75" d="M10 11h1M7 12h2M10 12h2M5 13h1M10 13h1" />
</svg>