<svg xmlns="http://www.w3.org/2000/svg" viewBox="0 -0.5 16 16" shape-rendering="crispEdges">
    <metadata>Made with Pixels to Svg https://codepen.io/shshaw/pen/XbxvNj</metadata>
    <path stroke="#b4202a" d="M6 2h1M10 4h1M10 5h1M13 5h1M2 6h1M6 6h1M11 7h1M5 8h1M12 10h1M5 14h1" />
    <path stroke="#73172d" d="M9 3h2M9 4h1M11 4h1M6 5h2M9 5h1M11 5h1M5 6h1M7 6h1M9 6h1M11 6h1M5 7h1M8 7h1M12 7h1M4 8h1M12 8h1M4 9h1M12 9h1M3 10h1M13 10h1M3 11h1M13 11h1M3 12h1M13 12h1M3 13h1M13 13h1M4 14h1M12 14h1M5 15h7" />
    <path stroke="#df3e23" d="M10 6h1M6 7h1M10 7h1M11 8h1M5 9h1M11 9h1M4 10h1M4 13h1M12 13h1M11 14h1" />
    <path stroke="#fa6a0a" d="M7 7h1M9 7h1M6 8h2M10 8h1M6 9h1M10 9h1M5 10h1M11 10h1M4 11h1M12 11h1M4 12h1M12 12h1M6 14h1M10 14h1" />
    <path stroke="#f9a31b" d="M8 8h1M8 9h2M6 10h3M10 10h1M5 11h2M10 11h2M5 12h1M11 12h1M5 13h1M11 13h1" />
    <path stroke="#ffd541" d="M9 8h1M7 9h1M9 10h1M7 11h3M6 12h5M6 13h5M7 14h3" />
</svg>