<svg xmlns="http://www.w3.org/2000/svg" viewBox="0 -0.5 46 14" shape-rendering="crispEdges">
    <metadata>Made with Pixels to Svg https://codepen.io/shshaw/pen/XbxvNj</metadata>
    <path stroke="#23272a" d="M1 0h44M0 1h46M0 2h3M9 2h11M22 2h4M28 2h18M0 3h2M3 3h5M10 3h9M20 3h1M23 3h2M26 3h1M29 3h17M0 4h2M7 4h1M10 4h2M16 4h3M20 4h1M23 4h2M26 4h1M29 4h3M36 4h4M43 4h3M0 5h4M6 5h1M10 5h1M12 5h3M17 5h1M19 5h3M25 5h3M30 5h1M32 5h3M37 5h2M40 5h2M44 5h2M0 6h4M5 6h1M9 6h1M11 6h1M15 6h1M20 6h1M26 6h1M31 6h1M35 6h1M39 6h1M44 6h2M0 7h3M4 7h1M8 7h2M11 7h5M18 7h1M20 7h1M23 7h2M26 7h1M29 7h1M31 7h5M39 7h1M42 7h4M0 8h2M3 8h1M9 8h1M11 8h1M18 8h1M20 8h1M23 8h2M26 8h1M29 8h1M31 8h1M39 8h1M42 8h4M0 9h2M3 9h5M12 9h4M18 9h1M21 9h1M24 9h1M27 9h1M32 9h4M39 9h1M42 9h4M0 10h2M10 10h1M18 10h2M24 10h2M30 10h1M42 10h4M0 11h3M10 11h2M18 11h3M24 11h3M30 11h2M38 11h1M42 11h4M0 12h46M1 13h44" />
    <path stroke="#ed4245" d="M3 2h6M2 3h1M8 3h2M12 4h4M11 5h1M15 5h2M10 6h1M12 6h3M16 6h2M10 7h1M16 7h2M10 8h1M12 8h6M10 9h2M16 9h2M11 10h7M12 11h6" />
    <path stroke="#fee75c" d="M20 2h2M19 3h1M21 3h2M2 4h5M8 4h2M19 4h1M21 4h2M4 5h2M7 5h3M18 5h1M22 5h2M18 6h2M21 6h3M19 7h1M21 7h2M19 8h1M21 8h2M19 9h2M22 9h2M20 10h4M21 11h3" />
    <path stroke="#57f287" d="M26 2h2M25 3h1M27 3h2M25 4h1M27 4h2M24 5h1M28 5h2M4 6h1M6 6h3M24 6h2M27 6h3M3 7h1M5 7h3M25 7h1M27 7h2M25 8h1M27 8h2M25 9h2M28 9h2M26 10h4M27 11h3" />
    <path stroke="#5865f2" d="M32 4h4M31 5h1M35 5h2M30 6h1M32 6h3M36 6h2M30 7h1M36 7h2M2 8h1M4 8h5M30 8h1M32 8h6M2 9h1M8 9h2M30 9h2M36 9h2M31 10h7M32 11h6" />
    <path stroke="#eb459e" d="M40 4h3M39 5h1M42 5h2M38 6h1M40 6h4M38 7h1M40 7h2M38 8h1M40 8h2M38 9h1M40 9h2M2 10h8M38 10h4M3 11h7M39 11h3" />
</svg>