<svg xmlns="http://www.w3.org/2000/svg" viewBox="0 -0.5 16 16" shape-rendering="crispEdges">
<metadata>Made with Pixels to Svg https://codepen.io/shshaw/pen/XbxvNj</metadata>
<path stroke="#000000" d="M0 0h5M11 0h5M0 1h3M13 1h3M0 2h2M14 2h2M0 3h1M15 3h1M0 4h1M15 4h1M0 11h1M15 11h1M0 12h1M15 12h1M0 13h2M14 13h2M0 14h3M13 14h3M0 15h5M11 15h5" />
<path d="M5 0h6M3 1h10M2 2h4M10 2h4M1 3h3M12 3h3M1 4h2M13 4h2M0 5h3M13 5h3M0 6h2M14 6h2M0 7h2M14 7h2M0 8h2M14 8h2M0 9h2M14 9h2M0 10h3M13 10h3M1 11h2M13 11h2M1 12h3M12 12h3M2 13h4M10 13h4M3 14h10M5 15h6" />
</svg>