<svg xmlns="http://www.w3.org/2000/svg" viewBox="0 -0.5 14 14" shape-rendering="crispEdges">
    <metadata>Made with Pixels to Svg https://codepen.io/shshaw/pen/XbxvNj</metadata>
    <path stroke="#f6cd26" d="M2 0h2M1 1h2M0 2h2M0 3h1M8 3h1M8 5h1M7 6h1M7 7h1M5 8h1M10 9h1M11 10h1" />
    <path stroke="#fffc40" d="M4 0h3M6 1h2M7 2h2M8 4h1" />
    <path stroke="#ac6b26" d="M3 1h3M2 2h1M6 2h1M7 3h1M7 4h1M7 5h1M9 8h1M12 11h1" />
    <path stroke="#ffffff" d="M3 3h1" />
    <path stroke="#f9a31b" d="M0 4h1M0 5h1M0 6h2M1 7h2M6 7h1M3 8h2" />
    <path stroke="#331c17" d="M8 7h1M7 8h1M8 10h1M9 11h1M10 12h1M13 12h1M11 13h3" />
    <path stroke="#563226" d="M9 7h1M8 8h1M10 8h1M7 9h3M11 9h1M9 10h2M12 10h1M10 11h2M13 11h1M11 12h2" />
</svg>